<?xml version="1.0" encoding="utf-8"?>
<!-- Generator: Adobe Illustrator 21.1.0, SVG Export Plug-In . SVG Version: 6.00 Build 0)  -->
<svg version="1.1" xmlns="http://www.w3.org/2000/svg" xmlns:xlink="http://www.w3.org/1999/xlink" x="0px" y="0px"
	 viewBox="0 0 84.3 82.1" style="enable-background:new 0 0 84.3 82.1;" xml:space="preserve">
<style type="text/css">
	.st0{display:none;}
	.st1{display:inline;fill:#01000A;stroke:#FFFFFF;stroke-miterlimit:10;}
	.st2{display:none;fill:#0073B9;}
	.st3{fill:#FFFFFF;}
	.st4{opacity:0.7;fill:#FFFFFF;enable-background:new    ;}
	.st5{opacity:0.4;fill:#FFFFFF;enable-background:new    ;}
</style>
<g id="Layer_2_1_" class="st0">
	<polyline class="st1" points="223,127.1 -18,127.1 -18,-37.9 223,-37.9 	"/>
</g>
<g id="Layer_1">
	<g id="Layer_2">
		<rect x="-0.2" y="-0.8" class="st2" width="217.2" height="89.8"/>
	</g>
	<g id="Option_A2">
		<title>Artboard 19</title>
		<path class="st3" d="M50,65.4c4.5-1.3,8.6-3.8,11.8-7.2h-6.3C53.9,60.8,52.1,63.2,50,65.4z M18,37.6h8.1c0.4-3.4,1.3-6.7,2.7-9.8
			h-7.2C19.8,30.8,18.6,34.1,18,37.6L18,37.6z M13.9,41c0-16.1,13.2-29.2,29.3-29.2c0,0,0,0,0.1,0v3.9c-3,2.3-5.6,5-7.7,8.1h7.7v3.9
			h-10c-2.1,4.1-3.3,8.6-3.3,13.2L13.9,41z M68.2,44.5h-8.1c-0.4,3.4-1.2,6.7-2.6,9.8h7.3C66.6,51.3,67.8,48,68.2,44.5L68.2,44.5z
			 M72.3,41c0,16.1-13,29.1-29.1,29.2v-3.8c3-2.3,5.6-5.1,7.7-8.2h-7.7v-3.9h10c2.1-4.1,3.2-8.7,3.3-13.3H72.3z M36.3,16.7
			c-4.5,1.2-8.6,3.7-11.8,7.2h6.3C32.4,21.3,34.2,18.9,36.3,16.7z"/>
		<path class="st3" d="M43.2,46.6c3.1,0,5.5-2.5,5.5-5.6s-2.5-5.5-5.6-5.5c-3,0-5.5,2.5-5.5,5.5C37.6,44.1,40.1,46.6,43.2,46.6
			C43.1,46.6,43.2,46.6,43.2,46.6z"/>
		<path class="st4" d="M47.1,11.9L47.1,11.9C60.3,13.7,70.6,24,72.4,37.2h-4c-1.7-11-10.3-19.6-21.3-21.3L47.1,11.9"/>
		<path class="st4" d="M39.2,70.2C26.1,68.4,15.7,58.1,13.9,45h4c1.7,10.9,10.3,19.5,21.3,21.3C39.2,66.3,39.2,70.2,39.2,70.2z"/>
		<path class="st3" d="M47.1,24.2L47.1,24.2v4.1c4.3,1.3,7.6,4.6,8.9,8.9h4C58.5,30.7,53.5,25.6,47.1,24.2"/>
		<path class="st3" d="M39.2,53.8L39.2,53.8v4.1c-6.4-1.5-11.4-6.5-12.9-12.9h4.1C31.6,49.2,35,52.6,39.2,53.8"/>
		<path class="st5" d="M80.6,37.1h3.7C82.5,17.3,66.8,1.7,47.1,0v3.7C64.8,5.4,78.8,19.4,80.6,37.1z"/>
		<path class="st5" d="M5.9,45H2.2c2.1,19.6,17.5,35,37.1,37.1v-3.8C21.7,76.3,7.9,62.5,5.9,45z"/>
	</g>
</g>
</svg>
